<?xml version="1.0" encoding="utf-8"?>
<!-- Generator: Adobe Adobe Illustrator 24.2.0, SVG Export Plug-In . SVG Version: 6.00 Build 0)  -->
<svg version="1.1" id="Layer_1" xmlns="http://www.w3.org/2000/svg" xmlns:xlink="http://www.w3.org/1999/xlink" x="0px" y="0px"
	 width="512px" height="512px" viewBox="0 0 512 512" style="enable-background:new 0 0 512 512;" xml:space="preserve">
<style type="text/css">
	.st0{fill:url(#SVGID_1_);}
	.st1{fill:url(#SVGID_2_);}
	.st2{fill:url(#SVGID_3_);}
	.st3{fill:url(#SVGID_4_);}
	.st4{fill:url(#SVGID_5_);}
	.st5{fill:url(#SVGID_6_);}
	.st6{fill:url(#SVGID_7_);}
	.st7{fill:url(#SVGID_8_);}
	.st8{fill:url(#SVGID_9_);}
	.st9{fill:url(#SVGID_10_);}
	.st10{fill:url(#SVGID_11_);}
	.st11{fill:url(#SVGID_12_);}
	.st12{fill:url(#SVGID_13_);}
	.st13{fill:url(#SVGID_14_);}
	.st14{fill:url(#SVGID_15_);}
	.st15{fill:url(#SVGID_16_);}
	.st16{fill:url(#SVGID_17_);}
	.st17{fill:url(#SVGID_18_);}
	.st18{fill:url(#SVGID_19_);}
	.st19{fill:url(#SVGID_20_);}
	.st20{fill:url(#SVGID_21_);}
	.st21{fill:url(#SVGID_22_);}
	.st22{fill:url(#SVGID_23_);}
	.st23{fill:url(#SVGID_24_);}
	.st24{fill:url(#SVGID_25_);}
	.st25{fill:url(#SVGID_26_);}
</style>
<g>
	<linearGradient id="SVGID_1_" gradientUnits="userSpaceOnUse" x1="291.6923" y1="243.7376" x2="326.3354" y2="243.7376">
		<stop  offset="0" style="stop-color:#5B1106"/>
		<stop  offset="1" style="stop-color:#250908"/>
	</linearGradient>
	<path class="st0" d="M326.33,239.38c-0.21,11.29-8.99,21.01-16.41,25.66c-0.09,0.06-0.18,0.11-0.26,0.16
		c0.14-0.1,0.31-0.25,0.52-0.43l0.01-0.01c0.66-0.59,1.59-1.59,2.49-2.85c0.01-0.01,0.01-0.01,0.01-0.02
		c2.9-4.13,5.28-11.07-4.43-15.95c-5.2-2.66-10.88-4.25-16.56-5.47c2.83-6.07,6.59-11.8,10.32-17.38c0.13-0.2,0.26-0.39,0.39-0.59
		C303.27,221.21,326.6,224.84,326.33,239.38z"/>
	<g>
		<linearGradient id="SVGID_2_" gradientUnits="userSpaceOnUse" x1="215.96" y1="409.8638" x2="276.3244" y2="409.8638">
			<stop  offset="0" style="stop-color:#5B1106"/>
			<stop  offset="1" style="stop-color:#250908"/>
		</linearGradient>
		<path class="st1" d="M272.7,430.54c0.14-4.4-1.61-9.73-10.53-9.52c-5.32,0.09-10.58,1.24-15.68,2.7
			c-0.07-1.3,1.11-6.95,0.48-12.05c0-0.01,0-0.01,0-0.01c-0.1-0.81-0.25-1.61-0.45-2.37c-1.22-4.59-4.52-7.99-12.56-5.96
			c-5.17,1.25-10.05,3.53-14.71,6.07c-1.71-6.09-2.51-12.51-3.28-18.8c-0.18-1.42,18.13-12.79,26.6-2.57
			c3.78,4.56,5.28,10.45,5.44,16.08c0.12-0.07,0.26-0.15,0.41-0.23c0.04-0.03,0.09-0.04,0.14-0.07c4.38-2.17,20.17-6.01,25.36,4.18
			c4.74,9.29,1.71,21.06-2.34,27.95C271.92,435.21,272.61,433.03,272.7,430.54L272.7,430.54z"/>
	</g>
	<linearGradient id="SVGID_3_" gradientUnits="userSpaceOnUse" x1="193.9549" y1="176.952" x2="227.7283" y2="176.952">
		<stop  offset="0" style="stop-color:#5B1106"/>
		<stop  offset="1" style="stop-color:#250908"/>
	</linearGradient>
	<path class="st2" d="M227.12,177.9c0,0.01,0,0.01,0,0.01c-0.26,1.36-0.6,2.72-1,4.06c-0.03,0.1-0.06,0.2-0.09,0.29
		c-0.33,1.1-0.71,2.17-1.12,3.23c-0.01,0.05-0.04,0.11-0.06,0.16c-2.1,5.39-5.06,10.17-7.84,13.12c0.53-0.65,1.78-3,2.61-5.93
		c0.01-0.01,0.01-0.02,0.01-0.03c0.03-0.11,0.06-0.23,0.09-0.35c1.49-5.61,1.3-13.11-8.36-15.05c-5.71-1.2-11.61-1.24-17.41-0.93
		c1.17-6.83,3.4-13.56,5.61-20.14c0.09-0.3,1.1-0.64,2.67-0.88c6.35-1,21.99-0.45,24.85,10.85
		C227.99,169.91,227.88,173.91,227.12,177.9z"/>
	<linearGradient id="SVGID_4_" gradientUnits="userSpaceOnUse" x1="178.274" y1="266.6898" x2="394" y2="266.6898">
		<stop  offset="0" style="stop-color:#6F1508"/>
		<stop  offset="1" style="stop-color:#270908"/>
	</linearGradient>
	<path class="st3" d="M376.86,333.6c-25.84,4.84-26.73,46.54-26.94,54.77c-0.28,0.13-4,1.63-9.78,3.02c0,0-0.02,0.01-0.05,0.02
		c-0.02,0.01-0.04,0.01-0.07,0.02c-14.76,3.53-42.81,6.27-61.62-16.41c-0.01-0.01-0.01-0.02-0.02-0.03
		c0.29-0.19,0.57-0.39,0.86-0.59c0.03-0.02,0.06-0.04,0.08-0.06h0.01c1.12-0.79,2.23-1.65,3.33-2.54
		c8.81-7.24,16.63-17.35,21.11-22.21c1.08-1.17,2.01-1.17,2.94-0.54c0.01,0.01,0.01,0.01,0.02,0.01c0.66,0.46,1.33,1.24,2.03,2.14
		c0.01,0.01,0.02,0.03,0.03,0.03c12.38,15.23,29.21,6.19,40.21-11.78c9.58-15.66,14.75-38.09,8.72-57.19
		c-0.01-0.04-0.03-0.08-0.04-0.12c-5.96-18.83-32.15-20.58-53.4-2.83c-24.95,20.84-36.65,53-37.28,80.28
		c-0.27,0.04-0.54,0.09-0.79,0.13c-13.08,1.86-18.14-7.51-20.13-16.09c-1.57-6.75-1.25-13.03-1.44-13.03
		c-0.63,0.09-17.34,25.58-37.81,30.68h-0.01c-0.03,0.01-0.05,0.01-0.08,0.02c-1.56,0.39-3.14,0.65-4.75,0.77
		c-0.06,0.01-0.12,0.01-0.18,0.02c-2.98,0.22-6.01-0.05-9.08-0.94c-4.86-1.41-7.87-5.26-7.92-11.36c-0.02-2.36,0.35-4.81,1.05-7.32
		c1.23-4.45,3.49-9.11,6.46-13.83c0.01-0.03,0.03-0.05,0.05-0.08c0.01-0.01,0.01-0.03,0.03-0.04c0.02-0.03,0.04-0.06,0.06-0.09
		c0.04-0.07,0.08-0.14,0.13-0.21c0.23-0.36,0.45-0.71,0.69-1.06c1.61-2.46,3.41-4.93,5.34-7.41c0.1-0.13,0.2-0.26,0.31-0.4
		c0.04-0.06,0.1-0.13,0.15-0.19c0.38-0.49,0.78-0.98,1.17-1.47c0.69-0.84,1.33-1.6,1.91-2.28c0.13-0.14,0.25-0.28,0.37-0.42
		c15.67-18.52,37.44-36.3,46.22-45.77c2.82-3.04,5.66-6.25,8.43-9.6c5.66-6.83,11.08-14.28,15.72-22.25
		c0.01-0.02,0.03-0.04,0.03-0.06c3.6-6.16,6.73-12.63,9.13-19.36c0.19-0.52,0.37-1.04,0.55-1.56c0.01-0.02,0.01-0.04,0.02-0.06
		c0-0.01,0.01-0.01,0.01-0.02c3.97-11.74,5.73-24.24,3.96-37.26c-1.2-8.83-4.03-17.9-8.89-27.13c-0.42-0.8-0.85-1.59-1.32-2.36
		c-1.85-3.09-4.03-5.96-6.46-8.61c-2.42-2.66-5.1-5.06-7.96-7.24c-2.86-2.18-5.89-4.14-9.08-5.8c-1.61-0.82-3.19-1.69-4.88-2.35
		l-2.5-1.05c-0.84-0.32-1.71-0.59-2.56-0.89c-6.86-2.3-14.15-3.33-21.35-3.05c-7.21,0.31-14.33,1.83-20.97,4.46
		c-6.63,2.63-12.79,6.41-17.82,11.27l0.38,0.5c6.05-3.36,12.34-5.9,18.82-7.56c6.47-1.66,13.09-2.43,19.68-2.37
		c6.58,0.11,13.11,1,19.44,2.72c0.79,0.22,1.59,0.42,2.37,0.66l2.32,0.81c1.57,0.49,3.06,1.2,4.57,1.85
		c3.02,1.32,5.89,2.99,8.6,4.87c2.71,1.89,5.27,4.01,7.6,6.36c2.33,2.34,4.45,4.89,6.25,7.66c0.94,1.36,1.74,2.79,2.59,4.3
		l1.21,2.22c3.85,7.75,5.84,15.32,6.35,22.66v0.01c0.62,9.04-1.01,17.73-4.19,26.03c0,0.01,0,0.01-0.01,0.01v0.01
		c-0.89,2.34-1.91,4.65-3.04,6.93c-3.82,7.72-8.87,15.05-14.54,21.96h-0.01c-2.34,2.85-4.79,5.63-7.29,8.33
		c-2.2,2.37-4.44,4.66-6.7,6.87c-22.48,22.12-46.68,37.37-60.73,67.39c0,0-0.01,0.01-0.02,0.04c-0.01,0.01-0.02,0.03-0.03,0.06
		c-0.54,1.15-1.06,2.32-1.56,3.51c-0.6,1.4-1.17,2.83-1.72,4.29c-0.39,1.03-0.75,2.05-1.08,3.07c-0.08,0.21-0.14,0.42-0.21,0.64
		c-1.44,4.41-2.42,8.64-2.99,12.65c-0.22,1.57-0.38,3.11-0.47,4.6c-0.01,0.14-0.03,0.28-0.04,0.42
		c-1.48,24.42,12.85,39.4,31.33,33.59c0.14-0.04,0.29-0.09,0.43-0.14c21.26-7.04,30.37-36,32.09-29.61
		c0.01,0.01,0.01,0.03,0.01,0.03c0.14,0.54,0.23,1.3,0.28,2.34c1,24.45,14.48,28.71,26.29,25.51c12.4,41.05,65.28,39.34,96.55,20.93
		c16.87-9.93,26.01-25.53,28.22-40.54C396.16,342.34,386.37,331.82,376.86,333.6z M340.39,288.08c3.8,0.62,8.21,1.92,11.05,4.64
		c1.82,1.74,3.01,3.76,3.65,5.96c0,0.01,0,0.01,0.01,0.01c0.04,0.13,0.08,0.26,0.1,0.39c0.03,0.14,0.06,0.28,0.1,0.42
		c0.08,0.29,0.13,0.59,0.18,0.88c0.01,0.03,0.01,0.06,0.01,0.08c1.47,9.13-5.2,20.78-13.94,28.88c-3.7,3.43-7.76,6.22-11.74,7.92
		c-5.67,2.42-11.17,2.62-15.17-0.72c-8.31-6.94-5.05-15.53-14.96-2.37c-15.99,21.21-25.65,23.47-28.77,24.31
		c-0.01-0.01-0.01-0.03-0.01-0.06c-0.34-1.74,1.01-22.14,19.76-46.15c8.01-10.25,18.33-19.08,30.44-22.83
		C327.1,287.58,333.55,286.98,340.39,288.08z M388.06,357.99c-0.07,0.14-0.14,0.27-0.23,0.41c-0.08,0.13-0.15,0.27-0.23,0.4
		c-7.34,12.69-22.03,22.66-35.99,28.85c-0.02,0.01-0.03,0.01-0.03,0.01s0.01-0.06,0.01-0.16c0.01-0.07,0.01-0.13,0.02-0.2
		c0.02-0.23,0.05-0.58,0.09-1.02c0.01-0.14,0.03-0.28,0.04-0.43c0.52-4.57,1.79-11.94,5.46-18.03c2.75-4.91,6.46-9.49,11.53-12.11
		c5.6-2.94,13.2-3.52,18.23,0.84c0.44,0.38,0.83,0.81,1.18,1.26l0.01,0.01C388.13,357.88,388.09,357.93,388.06,357.99z"/>
	<linearGradient id="SVGID_5_" gradientUnits="userSpaceOnUse" x1="392.8369" y1="356.7616" x2="361.1942" y2="361.803">
		<stop  offset="0" style="stop-color:#CDCDCD"/>
		<stop  offset="0.1479" style="stop-color:#D3D3D2;stop-opacity:0.8521"/>
		<stop  offset="0.4694" style="stop-color:#DBDBDB;stop-opacity:0.5306"/>
		<stop  offset="0.7627" style="stop-color:#DFDFDF;stop-opacity:0.2373"/>
		<stop  offset="1" style="stop-color:#E0E0E0;stop-opacity:0"/>
	</linearGradient>
	<path class="st4" d="M388.15,357.81c-0.35-0.45-0.74-0.88-1.18-1.26c-5.03-4.36-12.63-3.78-18.23-0.84
		c-5.07,2.62-8.78,7.21-11.53,12.11c-3.67,6.09-4.94,13.45-5.46,18.03c0.43-4.22,1.76-15.16,4.86-25.99
		c6.73-23.49,19.64-24.15,25.26-22.56C392.7,340.37,390.11,353.69,388.15,357.81z"/>
	<linearGradient id="SVGID_6_" gradientUnits="userSpaceOnUse" x1="305.2471" y1="399.7115" x2="303.7709" y2="374.4419">
		<stop  offset="0" style="stop-color:#CDCDCD"/>
		<stop  offset="0.1479" style="stop-color:#D3D3D2;stop-opacity:0.8521"/>
		<stop  offset="0.4694" style="stop-color:#DBDBDB;stop-opacity:0.5306"/>
		<stop  offset="0.7627" style="stop-color:#DFDFDF;stop-opacity:0.2373"/>
		<stop  offset="1" style="stop-color:#E0E0E0;stop-opacity:0"/>
	</linearGradient>
	<path class="st5" d="M340.02,391.43c-2.93,0.99-59.23,19.47-71.21-11.92c0,0,5.96-2,9.59-4.49
		C297.21,397.7,325.26,394.96,340.02,391.43z"/>
	<linearGradient id="SVGID_7_" gradientUnits="userSpaceOnUse" x1="283.1432" y1="314.3303" x2="300.542" y2="329.6329">
		<stop  offset="0" style="stop-color:#CDCDCD"/>
		<stop  offset="0.1479" style="stop-color:#D3D3D2;stop-opacity:0.8521"/>
		<stop  offset="0.4694" style="stop-color:#DBDBDB;stop-opacity:0.5306"/>
		<stop  offset="0.7627" style="stop-color:#DFDFDF;stop-opacity:0.2373"/>
		<stop  offset="1" style="stop-color:#E0E0E0;stop-opacity:0"/>
	</linearGradient>
	<path class="st6" d="M321.08,289.44c-12.11,3.74-22.43,12.58-30.44,22.83c-18.74,24.01-20.1,44.41-19.76,46.15l-2.99,0.81
		c3.37-54.57,53.04-69.97,53.04-69.97L321.08,289.44z"/>
	<linearGradient id="SVGID_8_" gradientUnits="userSpaceOnUse" x1="355.1426" y1="326.7834" x2="333.0618" y2="324.3133">
		<stop  offset="0" style="stop-color:#201F1F"/>
		<stop  offset="0.1895" style="stop-color:#4E4C49;stop-opacity:0.8105"/>
		<stop  offset="0.3772" style="stop-color:#7C7A76;stop-opacity:0.6228"/>
		<stop  offset="0.5563" style="stop-color:#A5A39F;stop-opacity:0.4437"/>
		<stop  offset="0.7242" style="stop-color:#C5C4C1;stop-opacity:0.2758"/>
		<stop  offset="0.8767" style="stop-color:#D9D8D8;stop-opacity:0.1233"/>
		<stop  offset="1" style="stop-color:#E0E0E0;stop-opacity:0"/>
	</linearGradient>
	<path class="st7" d="M336.32,349.91c-4.82,3.62-6.22-4.66-6.52-12.65c3.98-1.7,8.04-4.49,11.74-7.92
		c8.75-8.1,15.41-19.75,13.94-28.88C357.57,312.04,353.5,336.98,336.32,349.91z"/>
	<linearGradient id="SVGID_9_" gradientUnits="userSpaceOnUse" x1="296.3891" y1="342.8955" x2="285.7799" y2="367.2083">
		<stop  offset="0" style="stop-color:#CDCDCD"/>
		<stop  offset="0.1479" style="stop-color:#D3D3D2;stop-opacity:0.8521"/>
		<stop  offset="0.4694" style="stop-color:#DBDBDB;stop-opacity:0.5306"/>
		<stop  offset="0.7627" style="stop-color:#DFDFDF;stop-opacity:0.2373"/>
		<stop  offset="1" style="stop-color:#E0E0E0;stop-opacity:0"/>
	</linearGradient>
	<path class="st8" d="M306.71,349.04c-0.93-0.63-1.86-0.63-2.94,0.54c-4.48,4.86-12.3,14.97-21.11,22.21l-3.38-0.71l-2.02-0.42
		c0,0-9.05-0.61,0.12-11.05c1.18-1.34,2.65-2.84,4.48-4.52C295.49,342.6,303.24,345.86,306.71,349.04z"/>
	<linearGradient id="SVGID_10_" gradientUnits="userSpaceOnUse" x1="249.6668" y1="363.729" x2="270.8213" y2="354.3365">
		<stop  offset="0" style="stop-color:#CDCDCD"/>
		<stop  offset="0.1479" style="stop-color:#D3D3D2;stop-opacity:0.8521"/>
		<stop  offset="0.4694" style="stop-color:#DBDBDB;stop-opacity:0.5306"/>
		<stop  offset="0.7627" style="stop-color:#DFDFDF;stop-opacity:0.2373"/>
		<stop  offset="1" style="stop-color:#E0E0E0;stop-opacity:0"/>
	</linearGradient>
	<path class="st9" d="M279.28,371.08c-0.65,0.76-1.52,1.48-2.68,2.16c-23.27,13.68-29.12-17.38-30.51-29.63
		c1.99,8.57,7.05,17.94,20.13,16.09l0.26,0.36l9.77-1.59c0,0,0.48,0.42,1.12,1.15C279.35,361.84,282.92,366.86,279.28,371.08z"/>
	<linearGradient id="SVGID_11_" gradientUnits="userSpaceOnUse" x1="234.4843" y1="342.5562" x2="217.6036" y2="364.8281">
		<stop  offset="0" style="stop-color:#CDCDCD"/>
		<stop  offset="0.1479" style="stop-color:#D3D3D2;stop-opacity:0.8521"/>
		<stop  offset="0.4694" style="stop-color:#DBDBDB;stop-opacity:0.5306"/>
		<stop  offset="0.7627" style="stop-color:#DFDFDF;stop-opacity:0.2373"/>
		<stop  offset="1" style="stop-color:#E0E0E0;stop-opacity:0"/>
	</linearGradient>
	<path class="st10" d="M242.24,351.62c-1.72-6.39-10.83,22.58-32.09,29.61l-4.58-3.77l-2.04-13.36c0,0,10.64-0.65,16.82-6.2
		C239.13,341.05,241.85,349.18,242.24,351.62z"/>
	<g>
		<linearGradient id="SVGID_12_" gradientUnits="userSpaceOnUse" x1="126" y1="260.1366" x2="284.4303" y2="260.1366">
			<stop  offset="0" style="stop-color:#6F1508"/>
			<stop  offset="1" style="stop-color:#270908"/>
		</linearGradient>
		<path class="st11" d="M218.99,181.36c0.03,0.37,0.16,0.57,0.38,0.64C219.26,181.79,219.13,181.58,218.99,181.36z M284.01,223.84
			c-0.01-0.11-0.03-0.21-0.04-0.31c-0.01-0.16-0.03-0.31-0.05-0.45c-0.04-0.32-0.08-0.64-0.13-0.95c0-0.01-0.01-0.03-0.01-0.05
			c-0.01-0.04-0.02-0.09-0.03-0.15c-0.01-0.05-0.02-0.11-0.03-0.17c-0.27-1.83-0.63-3.62-1.1-5.38c-0.25-0.91-0.52-1.82-0.82-2.72
			c-0.04-0.11-0.08-0.23-0.12-0.33c-0.06-0.19-0.13-0.38-0.2-0.56c-0.06-0.18-0.13-0.37-0.21-0.56c-0.28-0.72-0.6-1.46-0.94-2.2
			c-0.45-1.01-0.96-2-1.53-2.99c-0.04-0.08-0.09-0.16-0.14-0.23c-0.04-0.08-0.08-0.15-0.13-0.23c-0.01-0.03-0.03-0.05-0.04-0.07
			c-0.1-0.18-0.21-0.37-0.32-0.54c-0.51-0.83-1.06-1.65-1.66-2.46c-0.51-0.7-1.08-1.39-1.7-2.06c0,0,0,0-0.01-0.01
			c-3.39-3.66-8.43-6.9-14.25-8.53c-12.13-3.39-26.7-2.7-32.56,2.61l-0.01,0.01c-0.47,0.42-0.89,0.88-1.24,1.37
			c-10.25,14.2-10.4,51.84,5.08,53.03c11.33,0.88,17.21-7.73,25.99-12.43c0.21-0.12,0.43-0.23,0.64-0.33
			c0.06-0.03,0.12-0.06,0.18-0.09c0.01-0.01,0.02-0.01,0.03-0.01c0.48-0.25,0.98-0.47,1.48-0.69c0.18-0.08,0.35-0.14,0.53-0.22
			c0.14-0.05,0.28-0.1,0.42-0.16c0.04-0.02,0.08-0.04,0.13-0.05h0.01c0.01-0.01,0.01-0.01,0.02-0.01c0.13-0.05,0.27-0.09,0.4-0.14
			c0.3-0.11,0.59-0.2,0.87-0.28c1.1-0.35,2.25-0.6,3.47-0.77c1.86-0.26,4.66,0.52,6.97,2.58c1.24,1.1,2.34,2.58,3.05,4.45
			c1.43,3.73,1.39,9.04-1.89,16.24c-5.96,13.06-20.41,27.83-34.62,39.2c-4.53,3.62-9.03,6.9-13.23,9.66
			c-3.17,2.08-6.16,3.87-8.86,5.3c-6.55,3.47-12.82,5.95-18.78,7.58c-0.01,0.01-0.01,0.01-0.02,0.01h-0.01
			c-3.96,1.09-7.78,1.8-11.46,2.19c-0.76,0.08-1.51,0.14-2.26,0.2c-0.03,0-0.06,0.01-0.08,0.01c-3.45,0.23-6.78,0.18-9.96-0.13
			c-2.4-0.23-4.91-0.66-7.47-1.27c-4-0.96-8.11-2.39-12.07-4.28c-16.43-7.81-30.35-23.45-23.56-46.09c0.02-0.07,0.04-0.14,0.06-0.21
			c0.04-0.14,0.09-0.28,0.13-0.42c0.04-0.14,0.09-0.28,0.13-0.42c0.07-0.21,0.13-0.42,0.2-0.6c0.04-0.13,0.08-0.25,0.13-0.37
			c0.16-0.47,0.3-0.86,0.43-1.2c0.03-0.08,0.06-0.14,0.08-0.21c0.04-0.1,0.08-0.2,0.11-0.28c0.03-0.09,0.06-0.16,0.09-0.23
			c0.03-0.07,0.06-0.13,0.08-0.18c0.01-0.04,0.03-0.08,0.04-0.1c0.01-0.01,0.01-0.03,0.01-0.04c0.02-0.04,0.03-0.06,0.03-0.06
			c5.01-12.55,14.66-23.35,22.06-27.87c3-1.83,6.15-3.45,9.46-4.8c6.63-2.73,13.69-4.69,20.74-7.1c3.52-1.24,7.04-2.59,10.48-4.2
			c1.69-0.87,3.41-1.68,5.03-2.71c1.66-0.94,3.19-2.12,4.76-3.22c1.46-1.25,2.98-2.42,4.31-3.82c0.71-0.66,1.3-1.41,1.96-2.11
			c0.64-0.71,1.2-1.49,1.8-2.24c3.73-4.64,8.3-14.9,10.98-22.28c0.02-0.06,0.04-0.11,0.06-0.16c0.43-1.16,0.8-2.25,1.12-3.23
			c0.03-0.09,0.06-0.19,0.09-0.29c0.52-1.65,0.87-2.97,0.98-3.79c0.01-0.1,0.02-0.19,0.02-0.26c0-0.01,0-0.01,0-0.01
			c-0.06-1.08-1.75,0.24-3.58,1.68h-0.01c-1.64,1.3-3.39,2.66-4.16,2.42c1.72,3.12,1.61,6.65,0.47,10.18c0,0.01-0.01,0.03-0.01,0.04
			c-0.06,0.2-0.13,0.39-0.2,0.59c-0.01,0.01-0.01,0.02-0.01,0.03c-3.38,9.45-13.79,18.76-16.07,20.2c-1.5,0.94-2.94,1.95-4.53,2.75
			c-1.52,0.89-3.17,1.61-4.77,2.37c-3.28,1.42-6.69,2.61-10.15,3.7l-10.54,3.23c-3.54,1.11-7.09,2.34-10.61,3.75
			c-3.5,1.46-6.92,3.21-10.19,5.26c-21.79,13.68-34.87,55.02-21.06,83.3c2.7,5.53,7.03,9.86,11.49,13.59
			c1.73,1.35,3.53,2.58,5.39,3.68c9.24,5.52,19.85,8.02,30.33,8.09c0.03,0.01,0.06,0.01,0.09,0c0.54,0.01,1.07,0.01,1.61-0.01
			c0.84-0.02,1.68-0.05,2.53-0.09c0.92-0.05,1.84-0.12,2.77-0.21c0.02,0,0.04-0.01,0.06-0.01c13.39-1.34,27.76-6.9,41.25-15.41
			c13.31-8.37,25.78-19.6,35.63-32.45c20.26-26.41,21.61-44.23,21.61-62.27C284.43,229.43,284.31,226.61,284.01,223.84z
			 M258.45,217.04c-3.68,1.78-7.2,3.87-10.74,5.91c-3.11,1.78-6.24,3.51-9.52,4.95c-2.64,1.25-5.24,1.67-7.5,1.4
			c-4.37-0.52-6.95-4.7-6.2-8.69c0-0.01,0.01-0.01,0-0.01c0.18-0.96,0.55-1.9,1.13-2.77c0.02-0.03,0.04-0.06,0.07-0.09
			c0.01-0.01,0.01-0.02,0.02-0.03c0.49-0.73,1.04-1.4,1.66-2c0,0,0-0.01,0.01-0.01c0.82-0.81,1.76-1.49,2.82-1.99
			c0.14-0.06,0.28-0.13,0.42-0.18c9.04-3.4,22.86-2.87,33.41,1.19c-0.37,0.11-0.72,0.23-1.08,0.38c-0.04,0.01-0.08,0.03-0.11,0.04
			c-0.03,0.01-0.06,0.02-0.09,0.03c-0.07,0.03-0.12,0.04-0.16,0.05c-0.03,0.01-0.05,0.02-0.05,0.02
			C261.12,215.77,259.77,216.43,258.45,217.04z"/>
	</g>
	<linearGradient id="SVGID_13_" gradientUnits="userSpaceOnUse" x1="267.3474" y1="230.0141" x2="253.7421" y2="251.9136">
		<stop  offset="0" style="stop-color:#CDCDCD"/>
		<stop  offset="0.1479" style="stop-color:#D3D3D2;stop-opacity:0.8521"/>
		<stop  offset="0.4694" style="stop-color:#DBDBDB;stop-opacity:0.5306"/>
		<stop  offset="0.7627" style="stop-color:#DFDFDF;stop-opacity:0.2373"/>
		<stop  offset="1" style="stop-color:#E0E0E0;stop-opacity:0"/>
	</linearGradient>
	<path class="st12" d="M272.93,237.35c-4.64,7.97-10.06,15.42-15.72,22.25l-9.97-8.48l-2.1-1.78l10.47-8.6l2.23-3.27
		c0.21-0.12,0.43-0.23,0.64-0.33c0.06-0.03,0.12-0.06,0.18-0.09c0.01-0.01,0.02-0.01,0.03-0.01c0.51-0.26,1-0.49,1.48-0.69
		c0.18-0.08,0.35-0.14,0.53-0.22c0.14-0.05,0.28-0.1,0.42-0.16c0.04-0.02,0.08-0.04,0.13-0.05h0.01c0.01-0.01,0.01-0.01,0.02-0.01
		c0.13-0.05,0.27-0.09,0.4-0.14c0.3-0.11,0.59-0.2,0.87-0.28C267.94,233.96,271.27,235.85,272.93,237.35z"/>
	<linearGradient id="SVGID_14_" gradientUnits="userSpaceOnUse" x1="276.4335" y1="213.7309" x2="288.1306" y2="193.6552">
		<stop  offset="0" style="stop-color:#CDCDCD"/>
		<stop  offset="0.1479" style="stop-color:#D3D3D2;stop-opacity:0.8521"/>
		<stop  offset="0.4694" style="stop-color:#DBDBDB;stop-opacity:0.5306"/>
		<stop  offset="0.7627" style="stop-color:#DFDFDF;stop-opacity:0.2373"/>
		<stop  offset="1" style="stop-color:#E0E0E0;stop-opacity:0"/>
	</linearGradient>
	<path class="st13" d="M282.67,216.3c0.72,2.59,1.06,4.76,1.22,6.12c-0.04-0.08-0.06-0.18-0.09-0.3c0-0.01-0.01-0.03-0.01-0.05
		c-0.01-0.04-0.02-0.09-0.03-0.15c-0.01-0.05-0.02-0.11-0.03-0.17c-0.22-1.91-0.6-3.73-1.08-5.44c-0.14-0.5-0.28-0.99-0.43-1.47
		c-0.13-0.41-0.26-0.81-0.41-1.2c-0.04-0.11-0.08-0.23-0.12-0.33c-0.81-2.24-1.73-4.16-2.52-5.65c-0.09-0.16-0.18-0.32-0.26-0.48
		c-0.03-0.06-0.06-0.1-0.09-0.16v-0.01c-0.04-0.08-0.09-0.16-0.13-0.25c0.05,0.08,0.09,0.16,0.14,0.23
		c3.18-8.3,4.81-16.99,4.19-26.03v-0.01l3.62-1.93C288.4,192.05,286.64,204.55,282.67,216.3z"/>
	<linearGradient id="SVGID_15_" gradientUnits="userSpaceOnUse" x1="188.4058" y1="319.6456" x2="212.7304" y2="326.5199">
		<stop  offset="0" style="stop-color:#CDCDCD"/>
		<stop  offset="0.1479" style="stop-color:#D3D3D2;stop-opacity:0.8521"/>
		<stop  offset="0.4694" style="stop-color:#DBDBDB;stop-opacity:0.5306"/>
		<stop  offset="0.7627" style="stop-color:#DFDFDF;stop-opacity:0.2373"/>
		<stop  offset="1" style="stop-color:#E0E0E0;stop-opacity:0"/>
	</linearGradient>
	<path class="st14" d="M229.35,318.34c0,2.08-1.03,5.73-2.15,8.7c-13.49,8.5-27.86,14.06-41.25,15.41c0,0,0.04-0.14,0.12-0.42
		l0.09-0.32c0.03-0.09,0.07-0.2,0.1-0.31c0.04-0.13,0.09-0.26,0.13-0.38c1.23-3.86,3.17-7.74,5.34-11.36
		c0.14-0.24,0.29-0.48,0.44-0.73c0.06-0.09,0.11-0.2,0.18-0.3c0.01-0.03,0.03-0.05,0.05-0.08c0.01-0.01,0.01-0.03,0.03-0.04
		c0.02-0.03,0.04-0.06,0.06-0.09c0.04-0.07,0.08-0.14,0.13-0.21c0.23-0.36,0.45-0.71,0.69-1.06c1.69-2.61,3.46-5.03,5.11-7.14
		c0.04-0.06,0.09-0.12,0.14-0.18c0.03-0.03,0.04-0.06,0.07-0.09c0.16-0.21,0.32-0.41,0.48-0.61c0.4-0.5,0.8-1,1.18-1.45
		c-0.39,0.49-0.79,0.98-1.17,1.47c-0.05,0.06-0.11,0.13-0.15,0.19c-0.11,0.13-0.21,0.26-0.31,0.4c5.96-1.63,12.22-4.11,18.78-7.58
		c2.7-1.43,5.69-3.22,8.86-5.3c1,0.28,1.78,0.69,1.91,1.28C228.57,309.94,229.35,315.18,229.35,318.34z"/>
	<linearGradient id="SVGID_16_" gradientUnits="userSpaceOnUse" x1="187.2171" y1="335.9492" x2="153.3945" y2="328.6779">
		<stop  offset="0" style="stop-color:#CDCDCD"/>
		<stop  offset="0.1479" style="stop-color:#D3D3D2;stop-opacity:0.8521"/>
		<stop  offset="0.4694" style="stop-color:#DBDBDB;stop-opacity:0.5306"/>
		<stop  offset="0.7627" style="stop-color:#DFDFDF;stop-opacity:0.2373"/>
		<stop  offset="1" style="stop-color:#E0E0E0;stop-opacity:0"/>
	</linearGradient>
	<path class="st15" d="M184.81,322.12c-0.79,1.85-1.77,4.34-2.72,7.35c-0.08,0.21-0.14,0.42-0.21,0.64
		c-1.11,3.6-2.19,7.89-2.9,12.65c-0.23,1.49-0.42,3.02-0.56,4.6c0.09-1.49,0.25-3.03,0.47-4.6c-10.47-0.06-21.09-2.57-30.33-8.09
		c0.44-1.25,0.91-2.54,1.39-3.87c1.76-4.87,3.72-10.06,5.37-14.37c3.96,1.89,8.07,3.32,12.07,4.28c2.56,0.62,5.07,1.05,7.47,1.27
		C178.03,322.3,181.36,322.35,184.81,322.12z"/>
	<linearGradient id="SVGID_17_" gradientUnits="userSpaceOnUse" x1="174.2158" y1="343.2011" x2="195.7825" y2="334.9943">
		<stop  offset="0" style="stop-color:#CDCDCD"/>
		<stop  offset="0.1479" style="stop-color:#D3D3D2;stop-opacity:0.8521"/>
		<stop  offset="0.4694" style="stop-color:#DBDBDB;stop-opacity:0.5306"/>
		<stop  offset="0.7627" style="stop-color:#DFDFDF;stop-opacity:0.2373"/>
		<stop  offset="1" style="stop-color:#E0E0E0;stop-opacity:0"/>
	</linearGradient>
	<path class="st16" d="M201.83,362.07c-18.76,2.22-22.82-7.41-21.24-19.31c0.91-6.8,3.66-14.34,6.56-20.84
		c4.1-9.16,8.52-16.26,8.52-16.26l3.43,13.46l0.01,0.02c-0.05,0.06-0.11,0.13-0.15,0.19c-0.11,0.14-0.23,0.27-0.33,0.4
		c-0.03,0.03-0.05,0.06-0.08,0.09c-0.05,0.06-0.09,0.12-0.14,0.18c-2.32,2.89-4.24,5.66-5.79,8.2c-0.05,0.07-0.09,0.14-0.13,0.21
		c-0.03,0.03-0.04,0.06-0.06,0.09c-0.01,0.01-0.02,0.03-0.03,0.04c-0.02,0.03-0.04,0.05-0.05,0.08c-0.06,0.1-0.12,0.2-0.18,0.3
		c-0.15,0.25-0.3,0.49-0.44,0.73c-3.05,5.19-4.64,9.3-5.34,11.36c-0.04,0.13-0.09,0.26-0.13,0.38c-0.03,0.11-0.07,0.22-0.1,0.31
		l-0.09,0.32c-0.08,0.28-0.12,0.42-0.12,0.42c-0.02,0-0.04,0.01-0.06,0.01c-0.7,2.51-1.07,4.96-1.05,7.32
		c0.04,6.1,3.06,9.95,7.92,11.36C195.81,362.02,198.85,362.29,201.83,362.07z"/>
	<linearGradient id="SVGID_18_" gradientUnits="userSpaceOnUse" x1="273.4915" y1="279.2989" x2="253.451" y2="273.9757">
		<stop  offset="0" style="stop-color:#CDCDCD"/>
		<stop  offset="0.1479" style="stop-color:#D3D3D2;stop-opacity:0.8521"/>
		<stop  offset="0.4694" style="stop-color:#DBDBDB;stop-opacity:0.5306"/>
		<stop  offset="0.7627" style="stop-color:#DFDFDF;stop-opacity:0.2373"/>
		<stop  offset="1" style="stop-color:#E0E0E0;stop-opacity:0"/>
	</linearGradient>
	<path class="st17" d="M249.22,306.86c-9.28,9.28-11.11-6.9-11.11-6.9l1.4-2.77c14.22-11.37,28.66-26.14,34.62-39.2
		c3.28-7.2,3.32-12.51,1.89-16.24l0.09-0.13C276.1,241.62,286.19,269.88,249.22,306.86z"/>
	<linearGradient id="SVGID_19_" gradientUnits="userSpaceOnUse" x1="127.4134" y1="304.7155" x2="156.2039" y2="302.8578">
		<stop  offset="0" style="stop-color:#CDCDCD"/>
		<stop  offset="0.1479" style="stop-color:#D3D3D2;stop-opacity:0.8521"/>
		<stop  offset="0.4694" style="stop-color:#DBDBDB;stop-opacity:0.5306"/>
		<stop  offset="0.7627" style="stop-color:#DFDFDF;stop-opacity:0.2373"/>
		<stop  offset="1" style="stop-color:#E0E0E0;stop-opacity:0"/>
	</linearGradient>
	<path class="st18" d="M167.38,320.72L162,336.78c-4.59-1.74-8.58-3.75-12.06-5.96c-28.25-18-21.64-49.45-18.13-60.67
		c-0.02,0.07-0.04,0.14-0.06,0.21c-6.79,22.64,7.14,38.28,23.56,46.09C159.28,318.33,163.38,319.76,167.38,320.72z"/>
	<linearGradient id="SVGID_20_" gradientUnits="userSpaceOnUse" x1="225.5464" y1="216.774" x2="226.9344" y2="216.6844">
		<stop  offset="0" style="stop-color:#201F1F"/>
		<stop  offset="0.1895" style="stop-color:#4E4C49;stop-opacity:0.8105"/>
		<stop  offset="0.3772" style="stop-color:#7C7A76;stop-opacity:0.6228"/>
		<stop  offset="0.5563" style="stop-color:#A5A39F;stop-opacity:0.4437"/>
		<stop  offset="0.7242" style="stop-color:#C5C4C1;stop-opacity:0.2758"/>
		<stop  offset="0.8767" style="stop-color:#D9D8D8;stop-opacity:0.1233"/>
		<stop  offset="1" style="stop-color:#E0E0E0;stop-opacity:0"/>
	</linearGradient>
	<path class="st19" d="M227.35,215.71c-0.62,0.6-1.17,1.27-1.66,2C226.19,216.84,226.74,216.15,227.35,215.71z"/>
	<linearGradient id="SVGID_21_" gradientUnits="userSpaceOnUse" x1="222.0125" y1="233.0166" x2="245.8829" y2="231.4764">
		<stop  offset="0" style="stop-color:#CDCDCD"/>
		<stop  offset="0.1479" style="stop-color:#D3D3D2;stop-opacity:0.8521"/>
		<stop  offset="0.4694" style="stop-color:#DBDBDB;stop-opacity:0.5306"/>
		<stop  offset="0.7627" style="stop-color:#DFDFDF;stop-opacity:0.2373"/>
		<stop  offset="1" style="stop-color:#E0E0E0;stop-opacity:0"/>
	</linearGradient>
	<path class="st20" d="M252.88,235.59c-27.76,22.25-32.06-3.1-28.4-14.98c-0.75,3.99,1.83,8.18,6.2,8.69
		c2.25,0.26,4.86-0.15,7.5-1.4c3.29-1.44,6.42-3.17,9.52-4.95C252.98,227.56,256.29,232.87,252.88,235.59z"/>
	<linearGradient id="SVGID_22_" gradientUnits="userSpaceOnUse" x1="258.3451" y1="227.4899" x2="252.1411" y2="208.4903">
		<stop  offset="0" style="stop-color:#CDCDCD"/>
		<stop  offset="0.1479" style="stop-color:#D3D3D2;stop-opacity:0.8521"/>
		<stop  offset="0.4694" style="stop-color:#DBDBDB;stop-opacity:0.5306"/>
		<stop  offset="0.7627" style="stop-color:#DFDFDF;stop-opacity:0.2373"/>
		<stop  offset="1" style="stop-color:#E0E0E0;stop-opacity:0"/>
	</linearGradient>
	<path class="st21" d="M284.01,223.84c-0.01-0.11-0.03-0.21-0.04-0.31c-0.01-0.16-0.03-0.31-0.05-0.45
		c-0.28-2.14-0.93-3.82-1.83-5.14c-1.54-2.27-3.84-3.45-6.32-3.98c-5.22-1.12-11.24,0.62-12.85,1.15c0.36-0.14,0.72-0.27,1.08-0.38
		c-10.56-4.06-24.37-4.59-33.41-1.19c-0.14,0.06-0.28,0.12-0.42,0.18l-4.63-0.86l2.46-17.36l0.01-0.01c5.86-5.32,20.43-6,32.56-2.61
		c5.82,1.62,10.85,4.87,14.25,8.53c0.01,0.01,0.01,0.01,0.01,0.01c1.59,1.82,2.9,3.72,3.99,5.61v0.01c0.03,0.05,0.06,0.11,0.09,0.16
		c0.09,0.16,0.18,0.32,0.26,0.48c0.43,0.78,0.82,1.56,1.18,2.32c0.34,0.74,0.66,1.48,0.94,2.2c0.08,0.19,0.14,0.38,0.21,0.56
		c0.27,0.72,0.52,1.42,0.72,2.09c0.16,0.5,0.31,0.98,0.44,1.45c0.72,2.59,1.06,4.76,1.22,6.12c0,0,0,0,0,0.01
		C283.97,223.15,284,223.64,284.01,223.84z"/>
	<linearGradient id="SVGID_23_" gradientUnits="userSpaceOnUse" x1="225.4805" y1="176.4737" x2="204.4236" y2="172.5679">
		<stop  offset="0" style="stop-color:#CDCDCD"/>
		<stop  offset="0.1479" style="stop-color:#D3D3D2;stop-opacity:0.8521"/>
		<stop  offset="0.4694" style="stop-color:#DBDBDB;stop-opacity:0.5306"/>
		<stop  offset="0.7627" style="stop-color:#DFDFDF;stop-opacity:0.2373"/>
		<stop  offset="1" style="stop-color:#E0E0E0;stop-opacity:0"/>
	</linearGradient>
	<path class="st22" d="M223.54,179.58L223.54,179.58c-0.56,3.63-1.74,7.8-3.7,12.61c0,0.01-0.01,0.03-0.01,0.04
		c-0.02,0.04-0.04,0.09-0.06,0.14c-0.01,0.03-0.03,0.07-0.05,0.1c1.49-5.61,1.3-13.11-8.36-15.05c-5.71-1.2-11.61-1.24-17.41-0.93
		c1.17-6.83,3.4-13.56,5.61-20.14c0.09-0.3,1.1-0.64,2.67-0.88C209.46,155.77,226.76,158.63,223.54,179.58z"/>
	<linearGradient id="SVGID_24_" gradientUnits="userSpaceOnUse" x1="323.0189" y1="245.0054" x2="301.5358" y2="241.0206">
		<stop  offset="0" style="stop-color:#CDCDCD"/>
		<stop  offset="0.1479" style="stop-color:#D3D3D2;stop-opacity:0.8521"/>
		<stop  offset="0.4694" style="stop-color:#DBDBDB;stop-opacity:0.5306"/>
		<stop  offset="0.7627" style="stop-color:#DFDFDF;stop-opacity:0.2373"/>
		<stop  offset="1" style="stop-color:#E0E0E0;stop-opacity:0"/>
	</linearGradient>
	<path class="st23" d="M312.68,261.9c2.9-4.13,5.28-11.07-4.43-15.95c-5.2-2.66-10.88-4.25-16.56-5.47
		c2.83-6.07,6.59-11.8,10.32-17.38l0.93-0.63C302.94,222.47,338.12,231.25,312.68,261.9z"/>
	<linearGradient id="SVGID_25_" gradientUnits="userSpaceOnUse" x1="244.8216" y1="393.7251" x2="226.7372" y2="403.3755">
		<stop  offset="0" style="stop-color:#CDCDCD"/>
		<stop  offset="0.1479" style="stop-color:#D3D3D2;stop-opacity:0.8521"/>
		<stop  offset="0.4694" style="stop-color:#DBDBDB;stop-opacity:0.5306"/>
		<stop  offset="0.7627" style="stop-color:#DFDFDF;stop-opacity:0.2373"/>
		<stop  offset="1" style="stop-color:#E0E0E0;stop-opacity:0"/>
	</linearGradient>
	<path class="st24" d="M246.96,411.65c-0.1-0.81-0.25-1.61-0.45-2.37c-1.22-4.59-4.52-7.99-12.56-5.96
		c-5.17,1.25-10.05,3.53-14.71,6.07c-1.71-6.09-2.51-12.51-3.28-18.8c5.25-6.05,29.27-7.1,30.93,17.04
		C246.98,408.9,247.01,410.24,246.96,411.65z"/>
	<linearGradient id="SVGID_26_" gradientUnits="userSpaceOnUse" x1="273.5452" y1="410.2722" x2="255.3046" y2="420.006">
		<stop  offset="0" style="stop-color:#CDCDCD"/>
		<stop  offset="0.1479" style="stop-color:#D3D3D2;stop-opacity:0.8521"/>
		<stop  offset="0.4694" style="stop-color:#DBDBDB;stop-opacity:0.5306"/>
		<stop  offset="0.7627" style="stop-color:#DFDFDF;stop-opacity:0.2373"/>
		<stop  offset="1" style="stop-color:#E0E0E0;stop-opacity:0"/>
	</linearGradient>
	<path class="st25" d="M272.7,430.54c0.14-4.4-1.61-9.73-10.53-9.52c-5.32,0.09-10.58,1.24-15.68,2.7
		c-0.07-1.3,1.11-6.95,0.48-12.05c0-0.01,0-0.01,0-0.01c-0.1-0.81-0.25-1.61-0.45-2.37c0.13-0.59,0.26-1.14,0.38-1.65
		c0.49-2.01,1.01-3.41,1.52-3.76c0.04-0.03,0.09-0.04,0.14-0.07C275.63,395.87,274.03,421.53,272.7,430.54z"/>
</g>
</svg>
